<svg xmlns="http://www.w3.org/2000/svg" width="18.4" height="17.342" viewBox="0 0 18.4 17.342">
  <path id="category-icon" d="M114.517,46.556h-5.453a1.065,1.065,0,0,1-.908-.514l-.663-1.105a2.13,2.13,0,0,0-1.816-1.028h-3.865a2.65,2.65,0,0,0-2.647,2.647V58.2a2.65,2.65,0,0,0,2.647,2.647h12.705a2.65,2.65,0,0,0,2.647-2.647v-9a2.65,2.65,0,0,0-2.647-2.647ZM116.1,58.2a1.59,1.59,0,0,1-1.588,1.588H101.811a1.59,1.59,0,0,1-1.588-1.588V46.556a1.59,1.59,0,0,1,1.588-1.588h3.865a1.065,1.065,0,0,1,.908.514l.663,1.105a2.13,2.13,0,0,0,1.816,1.028h5.453a1.59,1.59,0,0,1,1.588,1.588v9Z" transform="translate(-98.964 -43.709)" fill="#959ca7" stroke="#959ca7" stroke-width="0.4"/>
</svg>
