<svg xmlns="http://www.w3.org/2000/svg" width="20" height="14" viewBox="0 0 20 14">
  <g id="Group_74283" data-name="Group 74283" transform="translate(0 -3)">
    <g id="Path_22633" data-name="Path 22633" transform="translate(0 3)" fill="#fff">
      <path d="M 17 13.25 L 3 13.25 C 1.759349942207336 13.25 0.75 12.24065017700195 0.75 11 L 0.75 3 C 0.75 1.759349942207336 1.759349942207336 0.75 3 0.75 L 17 0.75 C 18.24065017700195 0.75 19.25 1.759349942207336 19.25 3 L 19.25 11 C 19.25 12.24065017700195 18.24065017700195 13.25 17 13.25 Z" stroke="none"/>
      <path d="M 3 1.5 C 2.17289924621582 1.5 1.5 2.172900199890137 1.5 3 L 1.5 11 C 1.5 11.82709980010986 2.17289924621582 12.5 3 12.5 L 17 12.5 C 17.82710075378418 12.5 18.5 11.82709980010986 18.5 11 L 18.5 3 C 18.5 2.172900199890137 17.82710075378418 1.5 17 1.5 L 3 1.5 M 3 0 L 17 0 C 18.65685081481934 0 20 1.34315013885498 20 3 L 20 11 C 20 12.65684986114502 18.65685081481934 14 17 14 L 3 14 C 1.343149185180664 14 0 12.65684986114502 0 11 L 0 3 C 0 1.34315013885498 1.343149185180664 0 3 0 Z" stroke="none" fill="#959ca7"/>
    </g>
    <g id="Group_74282" data-name="Group 74282" transform="translate(1)">
      <g id="Path_22632" data-name="Path 22632" transform="translate(4 7)" fill="#fff">
        <path d="M 0.800000011920929 5.199999809265137 L 0.800000011920929 0.800000011920929 L 0.800000011920929 5.199999809265137 Z" stroke="none"/>
        <path d="M 0 0 L 1.600000023841858 0 L 1.600000023841858 6 L 0 6 L 0 0 Z" stroke="none" fill="#959ca7"/>
      </g>
      <g id="Path_22631" data-name="Path 22631" transform="translate(8 7)" fill="#fff">
        <path d="M 0.800000011920929 5.199999809265137 L 0.800000011920929 0.800000011920929 L 0.800000011920929 5.199999809265137 Z" stroke="none"/>
        <path d="M 0 0 L 1.600000023841858 0 L 1.600000023841858 6 L 0 6 L 0 0 Z" stroke="none" fill="#959ca7"/>
      </g>
      <g id="Path_22630" data-name="Path 22630" transform="translate(12 7)" fill="#fff">
        <path d="M 0.800000011920929 5.199999809265137 L 0.800000011920929 0.800000011920929 L 0.800000011920929 5.199999809265137 Z" stroke="none"/>
        <path d="M 0 0 L 1.600000023841858 0 L 1.600000023841858 6 L 0 6 L 0 0 Z" stroke="none" fill="#959ca7"/>
      </g>
    </g>
  </g>
</svg>
