<svg xmlns="http://www.w3.org/2000/svg" width="23.282" height="14.1" viewBox="0 0 23.282 14.1">
  <g id="Group_74274" data-name="Group 74274" transform="translate(-4)">
    <path id="Path_14107" data-name="Path 14107" d="M207.919,888.95a3.751,3.751,0,0,1,2.949,1.434l3.562,4.535a1.751,1.751,0,0,1,0,2.162l-3.562,4.535a3.751,3.751,0,0,1-2.949,1.434H194.272a2.75,2.75,0,0,1-2.75-2.75v-8.6a2.75,2.75,0,0,1,2.75-2.75Zm1.77,2.36a2.251,2.251,0,0,0-1.77-.86H194.272a1.25,1.25,0,0,0-1.25,1.25v8.6a1.25,1.25,0,0,0,1.25,1.25h13.647a2.251,2.251,0,0,0,1.77-.86l3.561-4.536a.249.249,0,0,0,0-.308Z" transform="translate(-187.521 -888.95)" fill="#959ca7" fill-rule="evenodd"/>
    <path id="Path_22629" data-name="Path 22629" d="M232.25,862.75a2.5,2.5,0,1,0-2.5,2.5A2.5,2.5,0,0,0,232.25,862.75Zm-2.5-1.711a1.711,1.711,0,1,1-1.71,1.711A1.71,1.71,0,0,1,229.75,861.039Z" transform="translate(-209.947 -855.575)" fill="#959ca7" stroke="#959ca7" stroke-width="0.6" fill-rule="evenodd"/>
  </g>
</svg>
