<svg xmlns="http://www.w3.org/2000/svg" width="18" height="16.942" viewBox="0 0 18 16.942"><g transform="translate(-133.001 -103.681)"><path d="M616.679-4374.347a1.983,1.983,0,0,1,1.972-1.972,2,2,0,0,1,1.971,1.972,1.982,1.982,0,0,1-1.971,1.971A1.982,1.982,0,0,1,616.679-4374.347Zm1.194,0a.769.769,0,0,0,.778.776.793.793,0,0,0,.777-.776.769.769,0,0,0-.777-.778A.769.769,0,0,0,617.873-4374.347Zm-7.713,0a1.983,1.983,0,0,1,1.972-1.972,1.983,1.983,0,0,1,1.971,1.972,1.982,1.982,0,0,1-1.971,1.971A1.982,1.982,0,0,1,610.16-4374.347Zm1.194,0a.769.769,0,0,0,.778.776.793.793,0,0,0,.777-.776.769.769,0,0,0-.777-.778A.769.769,0,0,0,611.354-4374.347Zm-.62-2.73a1.822,1.822,0,0,1-1.763-1.382l-2.312-9.211a.627.627,0,0,0-.607-.474h-1.933a.59.59,0,0,1-.587-.587.591.591,0,0,1,.587-.587h1.933a1.821,1.821,0,0,1,1.763,1.384l.36,1.4h11.541a1.82,1.82,0,0,1,1.421.7,1.74,1.74,0,0,1,.341,1.536l-1.421,5.837a1.806,1.806,0,0,1-1.763,1.382Zm-.607-1.649a.627.627,0,0,0,.606.475h7.562a.626.626,0,0,0,.606-.475l1.422-5.836h0a.6.6,0,0,0-.113-.531.629.629,0,0,0-.492-.246H608.477Z" transform="translate(-470.531 4493)" fill="#4c5765"/></g></svg>