<svg xmlns="http://www.w3.org/2000/svg" xmlns:xlink="http://www.w3.org/1999/xlink" width="134" height="33.725" viewBox="0 0 134 33.725"><defs><clipPath id="clip-path"><rect id="Rectangle_2142" data-name="Rectangle 2142" width="134" height="33.725" transform="translate(165 711)" fill="#fff"></rect></clipPath><linearGradient id="linear-gradient" x1="0.084" y1="0.939" x2="0.889" y2="0.287" gradientUnits="objectBoundingBox"><stop offset="0" stop-color="#fca111"></stop><stop offset="0.1" stop-color="#fd867c"></stop><stop offset="0.242" stop-color="#f97480"></stop><stop offset="0.339" stop-color="#f474b0"></stop><stop offset="0.512" stop-color="#d278f8"></stop><stop offset="0.774" stop-color="#9588f9"></stop><stop offset="1" stop-color="#7664fe"></stop></linearGradient></defs><g id="kata-shoppress-logo" transform="translate(-165 -711)" clip-path="url(#clip-path)"><g id="ShopPress-Logo1" transform="translate(165.112 711.225)"><g id="Typeface" transform="translate(38.354 11.448)"><path id="Path_14122" data-name="Path 14122" d="M14.38-121.5c3.116,0,5.322-1.7,5.322-4.411,0-2.428-1.437-3.885-4.067-4.593l-1.437-.384c-1.578-.445-2.287-1.052-2.287-2.084,0-1.113.809-1.983,2.428-1.983a2.518,2.518,0,0,1,2.752,1.862h2.064v-1.457c-.486-1.6-2.125-2.61-4.694-2.61-3.076,0-5.16,1.639-5.16,4.35,0,2.287,1.376,3.7,4.108,4.391l1.214.3c1.7.465,2.469,1.093,2.469,2.266,0,1.336-1.113,2.145-2.671,2.145a3.145,3.145,0,0,1-3.2-1.983H9.18v1.457C9.807-122.753,11.588-121.5,14.38-121.5Zm7-.243H23.83v-5.868a2.181,2.181,0,0,1,2.307-2.408c1.457,0,2.023.992,2.023,2.408v5.868h2.469v-6.172c0-2.307-1.012-4.229-3.764-4.229a3.667,3.667,0,0,0-3.035,1.5v-6.273H21.382Zm16.026.243a5.071,5.071,0,0,0,5.241-5.342,5.038,5.038,0,0,0-5.241-5.3,5.032,5.032,0,0,0-5.261,5.3A5.064,5.064,0,0,0,37.408-121.5Zm0-2.1c-1.9,0-2.792-1.457-2.792-3.238,0-1.74.89-3.2,2.792-3.2s2.772,1.457,2.772,3.2C40.18-125.06,39.31-123.6,37.408-123.6Zm6.86,6.92h2.448v-6.556a4.049,4.049,0,0,0,3.46,1.74c2.894,0,4.654-2.388,4.654-5.342,0-2.934-1.72-5.3-4.654-5.3a4.043,4.043,0,0,0-3.48,1.781l-.182-1.538H44.267Zm5.281-6.961a2.924,2.924,0,0,1-2.833-3.2A2.889,2.889,0,0,1,49.549-130c1.882,0,2.813,1.416,2.813,3.157C52.361-125.08,51.43-123.643,49.549-123.643Z" transform="translate(-9.18 137.16)" fill="#837af5" stroke="rgba(0,0,0,0)" stroke-width="1"></path><path id="Path_14123" data-name="Path 14123" d="M16.02-119.824h2.691v-5.3h1.72c3.683,0,5.544-2.469,5.544-5.1,0-2.894-2.145-4.775-5.544-4.775H16.02Zm2.671-7.548v-5.4h1.72a2.61,2.61,0,0,1,2.853,2.61,2.64,2.64,0,0,1-2.853,2.792Zm8.762,7.548H29.9v-5.807c0-1.437.627-2.509,1.943-2.509a1.5,1.5,0,0,1,1.6,1.133H35.2v-1.376a2.3,2.3,0,0,0-2.529-1.841,3.106,3.106,0,0,0-2.833,1.578l-.142-1.335H27.453Zm13.274.243c3.359,0,4.371-1.8,4.371-1.8v-1.336H43.317s-.465,1.093-2.57,1.093a2.725,2.725,0,0,1-2.914-2.813H45.2a7.029,7.029,0,0,0,.1-1.194c0-2.61-1.437-4.593-4.775-4.593-3.319,0-5.16,2.388-5.16,5.322C35.365-121.827,37.165-119.581,40.727-119.581ZM37.914-126.1a2.4,2.4,0,0,1,2.61-2.1c1.619,0,2.388.931,2.388,2.1ZM50.6-119.581c2.631,0,4.027-1.416,4.027-3.3,0-1.922-1.457-2.59-3.116-2.894L50.338-126c-.911-.182-1.518-.526-1.518-1.174s.425-1.133,1.558-1.133a2.053,2.053,0,0,1,2.044,1.174h1.72v-1.336c-.425-.89-1.5-1.76-3.743-1.76-2.469,0-3.845,1.437-3.845,3.177,0,1.841,1.194,2.671,2.732,2.934l1.174.223c1.093.223,1.922.425,1.922,1.255,0,.668-.445,1.113-1.781,1.113a2.625,2.625,0,0,1-2.489-1.275h-1.74v1.336C46.494-121.18,47.586-119.581,50.6-119.581Zm9.268,0c2.631,0,4.027-1.416,4.027-3.3,0-1.922-1.457-2.59-3.116-2.894L59.606-126c-.911-.182-1.518-.526-1.518-1.174s.425-1.133,1.558-1.133a2.053,2.053,0,0,1,2.044,1.174h1.72v-1.336c-.425-.89-1.5-1.76-3.743-1.76-2.469,0-3.845,1.437-3.845,3.177,0,1.841,1.194,2.671,2.732,2.934l1.174.223c1.093.223,1.922.425,1.922,1.255,0,.668-.445,1.113-1.781,1.113A2.625,2.625,0,0,1,57.38-122.8H55.64v1.336C55.761-121.18,56.854-119.581,59.869-119.581Z" transform="translate(31.514 135.243)" stroke="rgba(0,0,0,0)" stroke-width="1"></path></g><g id="Icon" transform="translate(0 0)"><path id="Path_14124" data-name="Path 14124" d="M-3430.982-5181.731h-7.77a2.234,2.234,0,0,1-1.59-.658,2.234,2.234,0,0,1-.658-1.59l2.473-21.359a2.234,2.234,0,0,1,.658-1.59,2.235,2.235,0,0,1,1.59-.658h3.1a7.4,7.4,0,0,1,.6-2.885,7.465,7.465,0,0,1,1.605-2.356,7.457,7.457,0,0,1,2.368-1.589,7.407,7.407,0,0,1,2.893-.583,7.4,7.4,0,0,1,2.893.583,7.458,7.458,0,0,1,2.368,1.589,7.464,7.464,0,0,1,1.605,2.356,7.406,7.406,0,0,1,.6,2.885h3.21a2.235,2.235,0,0,1,1.59.658,2.233,2.233,0,0,1,.659,1.59l.714,6.464-.305-2.738-13.984-.008a5.3,5.3,0,0,0-3.635,1.475,6.718,6.718,0,0,0-2.1,3.514,4.309,4.309,0,0,0,.458,3.451,3.308,3.308,0,0,0,2.978,1.506h10.134a.539.539,0,0,1,.448.182,1.257,1.257,0,0,1,.057,1.026,2.073,2.073,0,0,1-.405.906.845.845,0,0,1-.658.3h-10.165l-.869,3.765-.869,3.764Zm5.27-31.17a5.388,5.388,0,0,0-5.37,5.314h10.74A5.387,5.387,0,0,0-3425.711-5212.9Zm13.04,31.17h-14.546l.869-3.764h6.4a5.386,5.386,0,0,0,3.672-1.5,6.712,6.712,0,0,0,2.025-3.472,4.474,4.474,0,0,0-.425-3.472,3.326,3.326,0,0,0-2.986-1.5h-10.154a.547.547,0,0,1-.453-.182,1.233,1.233,0,0,1-.058-1.01,2.122,2.122,0,0,1,.408-.918.846.846,0,0,1,.66-.306l15.3-.038-.108-.98.109.98h0l1.538,13.915a2.233,2.233,0,0,1-.659,1.59A2.234,2.234,0,0,1-3412.671-5181.731Z" transform="translate(3441 5215)" stroke="rgba(0,0,0,0)" stroke-width="1" fill="url(#linear-gradient)"></path></g></g></g></svg>