<svg xmlns="http://www.w3.org/2000/svg" xmlns:xlink="http://www.w3.org/1999/xlink" id="Group_24054" data-name="Group 24054" width="60" height="62" viewBox="0 0 60 62"><defs><clipPath id="clip-path"><rect id="Rectangle_1868" data-name="Rectangle 1868" width="32" height="30.913" fill="#4c5765"></rect></clipPath></defs><rect id="Rectangle_1866" data-name="Rectangle 1866" width="60" height="62" rx="7" fill="#fff"></rect><g id="Mask_Group_6" data-name="Mask Group 6" transform="translate(14 16.031)" clip-path="url(#clip-path)"><g id="Group_2411" data-name="Group 2411" transform="translate(0.302 0.241)"><path id="Path_4592" data-name="Path 4592" d="M179.412,120.373a10.962,10.962,0,1,0-10.962-10.962A10.972,10.972,0,0,0,179.412,120.373Zm0-20.909a9.947,9.947,0,1,1-9.947,9.947A9.959,9.959,0,0,1,179.412,99.464Z" transform="translate(-163.685 -94.23)" fill="#4c5765"></path><path id="Path_4593" data-name="Path 4593" d="M239.283,170a.506.506,0,0,0,.717,0,.5.5,0,0,0,0-.717l-1.089-1.089a.507.507,0,1,0-.717.717Z" transform="translate(-229.077 -159.627)" fill="#4c5765"></path><path id="Path_4594" data-name="Path 4594" d="M428.283,359a.506.506,0,0,0,.717,0,.5.5,0,0,0,0-.717l-1.089-1.089a.507.507,0,0,0-.717.717Z" transform="translate(-406.666 -337.216)" fill="#4c5765"></path><path id="Path_4595" data-name="Path 4595" d="M197.776,272.109a.506.506,0,0,0-.507-.507H195.73a.507.507,0,1,0,0,1.014h1.538A.506.506,0,0,0,197.776,272.109Z" transform="translate(-188.842 -256.927)" fill="#4c5765"></path><path id="Path_4596" data-name="Path 4596" d="M463.009,272.617h1.538a.507.507,0,0,0,0-1.014h-1.538a.507.507,0,0,0,0,1.014Z" transform="translate(-439.982 -256.929)" fill="#4c5765"></path><path id="Path_4597" data-name="Path 4597" d="M238.606,359.149a.51.51,0,0,0,.358-.149l1.089-1.089a.507.507,0,1,0-.717-.717l-1.089,1.089a.5.5,0,0,0,0,.717A.489.489,0,0,0,238.606,359.149Z" transform="translate(-229.128 -337.212)" fill="#4c5765"></path><path id="Path_4598" data-name="Path 4598" d="M427.606,170.149a.51.51,0,0,0,.358-.149l1.089-1.089a.507.507,0,1,0-.717-.717l-1.089,1.089a.5.5,0,0,0,0,.717A.489.489,0,0,0,427.606,170.149Z" transform="translate(-406.716 -159.623)" fill="#4c5765"></path><path id="Path_4599" data-name="Path 4599" d="M342.109,392.5a.506.506,0,0,0-.507.507v1.538a.507.507,0,1,0,1.014,0v-1.538A.506.506,0,0,0,342.109,392.5Z" transform="translate(-326.382 -370.526)" fill="#4c5765"></path><path id="Path_4600" data-name="Path 4600" d="M342.109,127.776a.506.506,0,0,0,.507-.507V125.73a.507.507,0,0,0-1.014,0v1.538A.506.506,0,0,0,342.109,127.776Z" transform="translate(-326.382 -119.387)" fill="#4c5765"></path><path id="Path_4601" data-name="Path 4601" d="M344.044,212.984a.51.51,0,0,0,.358-.149.5.5,0,0,0,0-.717l-3.577-3.577V204.68a.507.507,0,1,0-1.014,0v4.28l3.875,3.875a.5.5,0,0,0,.358.149Z" transform="translate(-324.699 -193.57)" fill="#4c5765"></path><path id="Path_4602" data-name="Path 4602" d="M119.584,311.445a.507.507,0,0,0-.615.372,14.169,14.169,0,0,1-27.4.4l1.312,1a.507.507,0,1,0,.616-.8l-2.7-2.069a.5.5,0,0,0-.5-.064.513.513,0,0,0-.308.4l-.443,3.378a.506.506,0,0,0,.436.568.464.464,0,0,0,.068,0,.509.509,0,0,0,.5-.443l.169-1.285a15.186,15.186,0,0,0,29.247-.845.509.509,0,0,0-.372-.615Z" transform="translate(-89.528 -293.234)" fill="#4c5765" stroke="#4c5765" stroke-width="0.2"></path><path id="Path_4603" data-name="Path 4603" d="M134.988,37.039a.506.506,0,0,0-.568.436l-.237,1.812a15.185,15.185,0,0,0-29.257.808.508.508,0,0,0,.372.615.5.5,0,0,0,.122.013.512.512,0,0,0,.494-.385A14.17,14.17,0,0,1,133.1,39.223l-1.011-.774a.507.507,0,0,0-.616.8l2.7,2.069a.519.519,0,0,0,.308.1.571.571,0,0,0,.2-.037.506.506,0,0,0,.308-.4l.443-3.378a.515.515,0,0,0-.443-.571Z" transform="translate(-103.983 -28.559)" fill="#4c5765" stroke="#4c5765" stroke-width="0.2"></path></g></g></svg>