<svg xmlns="http://www.w3.org/2000/svg" xmlns:xlink="http://www.w3.org/1999/xlink" id="Group_2405" data-name="Group 2405" width="60" height="62" viewBox="0 0 60 62"><defs><clipPath id="clip-path"><rect id="Rectangle_1862" data-name="Rectangle 1862" width="32" height="17.947" fill="#4c5765"></rect></clipPath></defs><rect id="Rectangle_1866" data-name="Rectangle 1866" width="60" height="62" rx="7" fill="#fff"></rect><g id="Mask_Group_1" data-name="Mask Group 1" transform="translate(14 21.999)" clip-path="url(#clip-path)"><g id="Group_2394" data-name="Group 2394"><path id="Path_4555" data-name="Path 4555" d="M476,158.741l-1.966-5.127h-7.053v15.378h2.522a3.225,3.225,0,0,0,6.31,0h2.517V160.44Zm-3.344,11.478a1.89,1.89,0,1,1,1.89-1.89A1.894,1.894,0,0,1,472.658,170.219Zm4.34-2.561h-1.183a3.225,3.225,0,0,0-6.31,0h-1.187v-12.71h4.8l1.361,3.549H470.1a.667.667,0,0,0,0,1.334h5.136L477,161.12Z" transform="translate(-446.78 -153.614)" fill="#4c5765"></path><path id="Path_4556" data-name="Path 4556" d="M218.047,171.55a3.228,3.228,0,0,0,3.153-2.557h10.824V153.611h-19.46v15.378h2.33a3.232,3.232,0,0,0,3.153,2.561Zm0-1.334a1.89,1.89,0,1,1,1.89-1.89A1.891,1.891,0,0,1,218.047,170.216ZM213.9,154.945h16.8v12.71H221.2a3.225,3.225,0,0,0-6.31,0h-1Z" transform="translate(-212.563 -153.611)" fill="#4c5765"></path></g></g></svg>