<svg xmlns="http://www.w3.org/2000/svg" xmlns:xlink="http://www.w3.org/1999/xlink" id="Group_24053" data-name="Group 24053" width="60" height="62" viewBox="0 0 60 62"><defs><clipPath id="clip-path"><rect id="Rectangle_1867" data-name="Rectangle 1867" width="32" height="21.977" fill="#fff"></rect></clipPath></defs><rect id="Rectangle_1866" data-name="Rectangle 1866" width="60" height="62" rx="7" fill="#fff"></rect><g id="Mask_Group_5" data-name="Mask Group 5" transform="translate(14 19.999)" clip-path="url(#clip-path)"><g id="Group_2410" data-name="Group 2410" transform="translate(0.306 0.241)"><path id="Path_4588" data-name="Path 4588" d="M118.475,102.37h-26.3a2.574,2.574,0,0,0-2.573,2.573V121.25a2.574,2.574,0,0,0,2.573,2.573h26.3a2.574,2.574,0,0,0,2.573-2.573V104.943a2.574,2.574,0,0,0-2.573-2.573Zm-26.3,1.014h26.3a1.561,1.561,0,0,1,1.559,1.559v.835H90.617v-.835a1.561,1.561,0,0,1,1.559-1.559Zm27.857,3.4v2.857H90.618v-2.857Zm-1.559,16.016h-26.3a1.561,1.561,0,0,1-1.559-1.559V110.66h29.416v10.587a1.561,1.561,0,0,1-1.558,1.559Z" transform="translate(-89.603 -102.37)" fill="#4c5765" stroke="#4c5765" stroke-width="0.2"></path><path id="Path_4589" data-name="Path 4589" d="M148.167,360.81h-8.839a.507.507,0,1,0,0,1.014h8.838a.507.507,0,0,0,0-1.014Z" transform="translate(-135.85 -345.206)" fill="#4c5765"></path><g id="Path_4590" data-name="Path 4590" transform="translate(22.033 12.438)" fill="#fff"><path d="M 2.807539463043213 5.115097045898438 C 1.535159468650818 5.115097045898438 0.499999463558197 4.079936981201172 0.499999463558197 2.807547092437744 C 0.499999463558197 1.535157084465027 1.535159468650818 0.499997079372406 2.807539463043213 0.499997079372406 C 4.079919338226318 0.499997079372406 5.115079402923584 1.535157084465027 5.115079402923584 2.807547092437744 C 5.115079402923584 4.079936981201172 4.079919338226318 5.115097045898438 2.807539463043213 5.115097045898438 Z" stroke="none"></path><path d="M 2.807539463043213 0.9999971389770508 C 1.810859441757202 0.9999971389770508 0.9999995231628418 1.810857057571411 0.9999995231628418 2.807547092437744 C 0.9999995231628418 3.804237127304077 1.810859441757202 4.615097045898438 2.807539463043213 4.615097045898438 C 3.804219484329224 4.615097045898438 4.615079402923584 3.804237127304077 4.615079402923584 2.807547092437744 C 4.615079402923584 1.810857057571411 3.804219484329224 0.9999971389770508 2.807539463043213 0.9999971389770508 M 2.807539463043213 -2.86102294921875e-06 C 4.358099460601807 -2.86102294921875e-06 5.615079402923584 1.256977081298828 5.615079402923584 2.807547092437744 C 5.615079402923584 4.35811710357666 4.358099460601807 5.615097045898438 2.807539463043213 5.615097045898438 C 1.256979465484619 5.615097045898438 -4.76837158203125e-07 4.35811710357666 -4.76837158203125e-07 2.807547092437744 C -4.76837158203125e-07 1.256977081298828 1.256979465484619 -2.86102294921875e-06 2.807539463043213 -2.86102294921875e-06 Z" stroke="none" fill="#4c5765"></path></g><g id="Path_4591" data-name="Path 4591" transform="translate(19.256 12.438)" fill="#fff"><path d="M 2.807539463043213 5.115097045898438 C 1.535159468650818 5.115097045898438 0.499999463558197 4.079936981201172 0.499999463558197 2.807547092437744 C 0.499999463558197 1.535157084465027 1.535159468650818 0.499997079372406 2.807539463043213 0.499997079372406 C 4.079919338226318 0.499997079372406 5.115079402923584 1.535157084465027 5.115079402923584 2.807547092437744 C 5.115079402923584 4.079936981201172 4.079919338226318 5.115097045898438 2.807539463043213 5.115097045898438 Z" stroke="none"></path><path d="M 2.807539463043213 0.9999971389770508 C 1.810859441757202 0.9999971389770508 0.9999995231628418 1.810857057571411 0.9999995231628418 2.807547092437744 C 0.9999995231628418 3.804237127304077 1.810859441757202 4.615097045898438 2.807539463043213 4.615097045898438 C 3.804219484329224 4.615097045898438 4.615079402923584 3.804237127304077 4.615079402923584 2.807547092437744 C 4.615079402923584 1.810857057571411 3.804219484329224 0.9999971389770508 2.807539463043213 0.9999971389770508 M 2.807539463043213 -2.86102294921875e-06 C 4.358099460601807 -2.86102294921875e-06 5.615079402923584 1.256977081298828 5.615079402923584 2.807547092437744 C 5.615079402923584 4.35811710357666 4.358099460601807 5.615097045898438 2.807539463043213 5.615097045898438 C 1.256979465484619 5.615097045898438 -4.76837158203125e-07 4.35811710357666 -4.76837158203125e-07 2.807547092437744 C -4.76837158203125e-07 1.256977081298828 1.256979465484619 -2.86102294921875e-06 2.807539463043213 -2.86102294921875e-06 Z" stroke="none" fill="#4c5765"></path></g></g></g></svg>