<svg xmlns="http://www.w3.org/2000/svg" width="17.5" height="20" viewBox="0 0 17.5 20"><g id="kata-shoppress-map-icon" transform="translate(-643.25 -122.25)"><path id="Path_13517" data-name="Path 13517" d="M652,123a8,8,0,0,0-8,8v.327A8,8,0,0,0,645.506,136H645.5l.023.023a7.852,7.852,0,0,0,.651.787c.354.376,5.826,4.69,5.826,4.69a59.252,59.252,0,0,0,5.826-4.69,8.019,8.019,0,0,0,.657-.8L658.5,136h-.006A8,8,0,0,0,660,131.327V131A8,8,0,0,0,652,123Z" fill="none" stroke="#959ca7" stroke-linejoin="round" stroke-width="1.5"></path><path id="Path_13518" data-name="Path 13518" d="M655.25,131a3.25,3.25,0,1,0-3.25,3.25A3.25,3.25,0,0,0,655.25,131Z" fill="none" stroke="#959ca7" stroke-width="1.5"></path></g></svg>