<svg xmlns="http://www.w3.org/2000/svg" width="17.726" height="16.979" viewBox="0 0 17.726 16.979">
  <g id="Group_74274" data-name="Group 74274" transform="translate(-155.523 -241.51)">
    <path id="Path_13603" data-name="Path 13603" d="M159.483,243.259a2.488,2.488,0,0,0-2.193,2.164,39.474,39.474,0,0,0,0,9.154,2.486,2.486,0,0,0,2.193,2.163,40.971,40.971,0,0,0,9.034,0,2.486,2.486,0,0,0,2.193-2.163,39.426,39.426,0,0,0,.215-6.58.2.2,0,0,1,.059-.152l1.039-1.039a.2.2,0,0,1,.338.124,40.884,40.884,0,0,1-.162,7.821,3.984,3.984,0,0,1-3.516,3.48,42.507,42.507,0,0,1-9.366,0,3.984,3.984,0,0,1-3.516-3.48,40.818,40.818,0,0,1,0-9.5,3.983,3.983,0,0,1,3.516-3.479,42.507,42.507,0,0,1,9.366,0,4,4,0,0,1,1.76.638.192.192,0,0,1,.025.3l-.8.8a.21.21,0,0,1-.249.033,2.5,2.5,0,0,0-.9-.28A41.1,41.1,0,0,0,159.483,243.259Z" fill="#959ca7"/>
    <path id="Path_13604" data-name="Path 13604" d="M173.03,244.03a.75.75,0,0,0-1.06-1.06l-8.47,8.469-2.47-2.469a.75.75,0,0,0-1.06,1.06l3,3a.749.749,0,0,0,1.06,0Z" fill="#959ca7"/>
  </g>
</svg>
