<svg xmlns="http://www.w3.org/2000/svg" id="Group_24052" data-name="Group 24052" width="60" height="62" viewBox="0 0 60 62"><rect id="Rectangle_1866" data-name="Rectangle 1866" width="60" height="62" rx="7" fill="#fff"></rect><path id="Path_4587" data-name="Path 4587" d="M119.149,67.985c-1.607-7.143-7.144-12.105-13.554-12.105-6.431,0-11.947,4.955-13.554,12.1a2.509,2.509,0,0,0-2.446,2.5V73.7a2.505,2.505,0,0,0,5.01,0V70.483a2.511,2.511,0,0,0-1.548-2.316c1.51-6.648,6.61-11.255,12.538-11.255,5.911,0,11.025,4.614,12.538,11.259a2.508,2.508,0,0,0-1.548,2.316V73.7a2.505,2.505,0,0,0,1.989,2.45v2H113.88a12.563,12.563,0,0,0,1.524-6.053c0-6.245-4.4-11.327-9.81-11.327s-9.81,5.079-9.81,11.327,4.4,11.327,9.81,11.327a9.372,9.372,0,0,0,7.646-4.243h6.366V76.15a2.506,2.506,0,0,0,1.989-2.45V70.486a2.5,2.5,0,0,0-2.446-2.5Zm-25.576,2.5V73.7a1.473,1.473,0,1,1-2.946,0V70.487a1.473,1.473,0,1,1,2.946,0Zm20.766.7a.5.5,0,0,0-.213-.048c-5.371,0-9.745-4.029-9.745-8.978a.5.5,0,0,0-.065-.248,7.5,7.5,0,0,1,1.28-.11c4.58,0,8.348,4.133,8.744,9.383Zm-10.987-9.043c0,.007,0,.01,0,.017,0,.317.017.63.048.939a.514.514,0,0,0-.072.262,6.245,6.245,0,0,1-6.187,5.98,9.668,9.668,0,0,1,6.214-7.2Zm2.243,20.25c-4.841,0-8.778-4.618-8.778-10.3a12.151,12.151,0,0,1,.124-1.71,7.518,7.518,0,0,0,7.043-4.845,10.779,10.779,0,0,0,10.14,6.631.5.5,0,0,0,.248-.065,11.447,11.447,0,0,1-1.683,6.046h-7.37a.516.516,0,0,0,0,1.032h6.634a8.209,8.209,0,0,1-6.359,3.207ZM120.563,73.7a1.473,1.473,0,1,1-2.946,0V70.487a1.473,1.473,0,1,1,2.946,0Z" transform="translate(-75.094 -38.363)" fill="#4c5765" stroke="#4c5765" stroke-width="0.4"></path></svg>