<svg id="Close_Box" data-name="Close Box" xmlns="http://www.w3.org/2000/svg" width="18" height="18" viewBox="0 0 18 18">
  <circle id="Ellipse_8141" data-name="Ellipse 8141" cx="9" cy="9" r="9" fill="#f1f2f3"/>
  <path id="Icons_Small_Close" data-name="Icons / Small / Close" d="M5.874.126a.43.43,0,0,1,0,.608l-2.3,2.3L5.8,5.266a.43.43,0,0,1-.608.608L2.965,3.643.8,5.8A.43.43,0,0,1,.2,5.2L2.356,3.034.126.8A.43.43,0,0,1,.734.2l2.231,2.23,2.3-2.3A.43.43,0,0,1,5.874.126Z" transform="translate(6 5.605)" fill="#959ca7"/>
</svg>
