<svg xmlns="http://www.w3.org/2000/svg" xmlns:xlink="http://www.w3.org/1999/xlink" width="18" height="18" viewBox="0 0 18 18"><defs><clipPath id="clip-path"><rect id="Rectangle_2098" data-name="Rectangle 2098" width="18" height="18" transform="translate(76 2331)" fill="#959ca7"></rect></clipPath></defs><g id="compare_icon" data-name="compare icon" transform="translate(-76 -2331)" clip-path="url(#clip-path)"><g id="Group_65541" data-name="Group 65541" transform="translate(76.197 2331.152)"><path id="Path_13314" data-name="Path 13314" d="M334.907,185.653a.854.854,0,1,1-.854-.854.854.854,0,0,1,.854.854" transform="translate(-325.225 -180.813)" fill="#959ca7"></path><path id="Path_13315" data-name="Path 13315" d="M334.907,107.253a.854.854,0,1,1-.854-.854.854.854,0,0,1,.854.854" transform="translate(-325.225 -106.399)" fill="#959ca7"></path><path id="Path_13316" data-name="Path 13316" d="M334.907,264.053a.854.854,0,1,1-.854-.854.854.854,0,0,1,.854.854" transform="translate(-325.225 -255.226)" fill="#959ca7"></path><path id="Path_13317" data-name="Path 13317" d="M334.907,342.457a.854.854,0,1,1-.854-.854.854.854,0,0,1,.854.854" transform="translate(-325.225 -329.643)" fill="#959ca7"></path><path id="Path_13318" data-name="Path 13318" d="M334.907,420.853a.854.854,0,1,1-.854-.854.854.854,0,0,1,.854.854" transform="translate(-325.225 -404.053)" fill="#959ca7"></path><path id="Path_13319" data-name="Path 13319" d="M176.4,141.993v10.251a1.993,1.993,0,0,0,1.993,1.993h3.986v-1.709h-3.986a.285.285,0,0,1-.285-.285V141.993a.285.285,0,0,1,.285-.285h3.986V140h-3.986a1.993,1.993,0,0,0-1.993,1.993Z" transform="translate(-176.4 -138.291)" fill="#959ca7"></path><path id="Path_13320" data-name="Path 13320" d="M409.988,140H406v1.709h3.986a.285.285,0,0,1,.285.285v10.251a.285.285,0,0,1-.285.285H406v1.709h3.986a1.993,1.993,0,0,0,1.993-1.993V141.993A1.993,1.993,0,0,0,409.988,140Z" transform="translate(-394.327 -138.291)" fill="#959ca7"></path></g></g></svg>