<svg xmlns="http://www.w3.org/2000/svg" width="19.5" height="19.5" viewBox="0 0 19.5 19.5"><path id="kata-shoppress-tel-icon" d="M221,97.7a2.291,2.291,0,0,1-.225.981,3.746,3.746,0,0,1-.613.918,4.072,4.072,0,0,1-1.478,1.062,4.534,4.534,0,0,1-1.758.342,7.515,7.515,0,0,1-2.938-.657,15.812,15.812,0,0,1-3.1-1.782,25.923,25.923,0,0,1-2.957-2.52,25.6,25.6,0,0,1-2.514-2.943,16.066,16.066,0,0,1-1.767-3.069A7.565,7.565,0,0,1,203,87.086a4.656,4.656,0,0,1,.324-1.737,4.148,4.148,0,0,1,1.037-1.5A2.643,2.643,0,0,1,206.236,83a1.7,1.7,0,0,1,.73.162,1.47,1.47,0,0,1,.6.5l2.091,2.943a3.08,3.08,0,0,1,.36.63,1.407,1.407,0,0,1,.127.549,1.214,1.214,0,0,1-.19.639,3.061,3.061,0,0,1-.5.639l-.685.711a.482.482,0,0,0-.145.36.817.817,0,0,0,.027.207c.028.072.055.126.073.18a7.42,7.42,0,0,0,.838,1.152c.4.468.838.945,1.307,1.422.487.477.955.918,1.433,1.323a6.908,6.908,0,0,0,1.163.828c.045.018.1.045.162.072a.621.621,0,0,0,.225.036.5.5,0,0,0,.37-.153l.685-.675a2.765,2.765,0,0,1,.649-.5,1.2,1.2,0,0,1,.64-.189,1.445,1.445,0,0,1,.55.117,3.52,3.52,0,0,1,.631.351l2.983,2.115a1.368,1.368,0,0,1,.5.576A1.847,1.847,0,0,1,221,97.7Z" transform="translate(-202.25 -82.25)" fill="none" stroke="#959ca7" stroke-miterlimit="10" stroke-width="1.5"></path></svg>