<svg xmlns="http://www.w3.org/2000/svg" width="18" height="14.987" viewBox="0 0 18 14.987"><path id="wishlist-icon" d="M23.915,17.66a5.16,5.16,0,0,0-3.775,1.607,5.16,5.16,0,0,0-3.775-1.607,5.232,5.232,0,0,0-5.225,5.225c0,4.847,8.305,9.475,8.664,9.676a.7.7,0,0,0,.667,0c.364-.2,8.669-4.79,8.669-9.676a5.232,5.232,0,0,0-5.225-5.225ZM20.14,31.148c-2.4-1.392-7.61-5.072-7.61-8.264a3.84,3.84,0,0,1,3.835-3.835,3.747,3.747,0,0,1,3.189,1.716.695.695,0,0,0,1.172,0,3.745,3.745,0,0,1,3.189-1.716,3.84,3.84,0,0,1,3.835,3.835C27.75,26.1,22.544,29.765,20.14,31.148Z" transform="translate(-11.14 -17.66)" fill="#4c5765"></path></svg>